<svg xmlns="http://www.w3.org/2000/svg" viewBox="0 0 1200 675" role="img" aria-label="Ilustração editorial de floresta tropical e foguetão na Guiana Francesa."><defs><linearGradient id="bg" x2="0" y2="1"><stop stop-color="#E8F0E9"/><stop offset="1" stop-color="#C4D9D0"/></linearGradient></defs><rect width="1200" height="675" fill="#F8F4EA"/><rect x="42" y="38" width="1116" height="599" rx="38" fill="url(#bg)"/><circle cx="1030" cy="150" r="60" fill="#E4B85A" opacity=".9"/><path d="M90 220q120-80 240 0t240 0 240 0 240 0" fill="none" stroke="#fff" stroke-opacity=".5" stroke-width="18" stroke-linecap="round"/><path d="M0 470q180-80 360 0t360 0 480 0v205H0Z" fill="#26745B"/><path d="M0 540q200-60 400 0t800 0v135H0Z" fill="#175C53"/><path d="M820 480V340l62-112 62 112v140z" fill="#F2EEE3"/><path d="m820 340 62-112 62 112z" fill="#D77D5A"/><rect x="844" y="388" width="76" height="92" fill="#B8D3D0"/><path d="M882 228v-42m-22 220h44" stroke="#D77D5A" stroke-width="8"/><path d="M160 510q0-170 32-220 35 50 35 220m-67-78-62-34m129 34 57-36" stroke="#80A46A" stroke-width="23" stroke-linecap="round"/><rect x="42" y="38" width="1116" height="599" rx="38" fill="none" stroke="#fff" stroke-width="3" stroke-opacity=".8"/></svg>